<svg width="40" height="40" viewBox="0 0 40 40" fill="none" xmlns="http://www.w3.org/2000/svg">
<g id="carbon:location-filled">
<path id="Vector" d="M20.1527 3.14301C16.5872 3.14721 13.169 4.56547 10.6478 7.08666C8.12658 9.60786 6.70832 13.0261 6.70412 16.5916C6.69985 19.5054 7.65161 22.34 9.4134 24.6608C9.4134 24.6608 9.78018 25.1437 9.84009 25.2134L20.1527 37.3759L30.4703 25.2073C30.5241 25.1425 30.8921 24.6608 30.8921 24.6608L30.8933 24.6571C32.6542 22.3374 33.6056 19.504 33.6014 16.5916C33.5972 13.0261 32.1789 9.60786 29.6577 7.08666C27.1365 4.56547 23.7183 3.14721 20.1527 3.14301ZM20.1527 21.482C19.1855 21.482 18.24 21.1952 17.4358 20.6579C16.6316 20.1205 16.0047 19.3567 15.6346 18.4631C15.2645 17.5695 15.1676 16.5862 15.3563 15.6376C15.545 14.6889 16.0108 13.8175 16.6947 13.1336C17.3786 12.4497 18.25 11.9839 19.1987 11.7952C20.1473 11.6065 21.1306 11.7033 22.0242 12.0735C22.9178 12.4436 23.6816 13.0704 24.219 13.8747C24.7563 14.6789 25.0432 15.6244 25.0432 16.5916C25.0415 17.8882 24.5258 19.1311 23.609 20.0479C22.6922 20.9647 21.4493 21.4804 20.1527 21.482Z" fill="white"/>
</g>
</svg>
