<svg width="40" height="40" viewBox="0 0 40 40" fill="none" xmlns="http://www.w3.org/2000/svg">
<g id="bxs:phone-call">
<path id="Vector" d="M32.8931 18.3409H36.1534C36.1534 9.97826 29.8398 3.67126 21.4658 3.67126V6.93154C28.0874 6.93154 32.8931 11.729 32.8931 18.3409Z" fill="white"/>
<path id="Vector_2" d="M21.6339 13.3012C25.062 13.3012 26.5243 14.7634 26.5243 18.1916H29.7845C29.7845 12.9344 26.8911 10.0409 21.6339 10.0409V13.3012ZM27.2122 22.174C26.899 21.8893 26.4873 21.7375 26.0643 21.7506C25.6412 21.7636 25.2397 21.9406 24.9447 22.2441L21.0438 26.2559C20.1048 26.0766 18.2171 25.4881 16.274 23.5499C14.3308 21.6051 13.7424 19.7125 13.5679 18.7801L17.5765 14.8775C17.8803 14.5827 18.0576 14.1812 18.0706 13.758C18.0837 13.3348 17.9316 12.9231 17.6465 12.61L11.6232 5.98676C11.338 5.67272 10.9416 5.48224 10.5182 5.45576C10.0948 5.42928 9.67778 5.56889 9.35567 5.84494L5.81827 8.87862C5.53644 9.16148 5.36822 9.53793 5.34553 9.93658C5.32108 10.3441 4.85486 19.9978 12.3405 27.4866C18.8708 34.0153 27.0508 34.493 29.3037 34.493C29.6329 34.493 29.8351 34.4832 29.8889 34.4799C30.2875 34.4576 30.6637 34.2886 30.9452 34.0056L33.9773 30.4665C34.2535 30.1446 34.3934 29.7277 34.3672 29.3043C34.341 28.8809 34.1509 28.4844 33.8371 28.199L27.2122 22.174Z" fill="white"/>
</g>
</svg>
