<svg width="89" height="87" viewBox="0 0 89 87" fill="none" xmlns="http://www.w3.org/2000/svg">
<g id="Group 1984077284">
<ellipse id="Ellipse 191" cx="44.7216" cy="42.958" rx="43.957" ry="42.958" fill="#F7F7F7"/>
<circle id="Ellipse 192" cx="71.7026" cy="75.9258" r="10.4897" fill="#181818" stroke="white" stroke-width="0.999022"/>
<g id="Group 20062">
<path id="Vector" d="M70.2046 76.2252C70.2046 75.9236 70.3244 75.6344 70.5376 75.4212C70.7509 75.2079 71.0401 75.0881 71.3417 75.0881C71.6432 75.0881 71.9324 75.2079 72.1457 75.4212C72.3589 75.6344 72.4787 75.9236 72.4787 76.2252C72.4787 76.5268 72.3589 76.816 72.1457 77.0292C71.9324 77.2425 71.6432 77.3623 71.3417 77.3623C71.0401 77.3623 70.7509 77.2425 70.5376 77.0292C70.3244 76.816 70.2046 76.5268 70.2046 76.2252Z" fill="white"/>
<path id="Vector_2" fill-rule="evenodd" clip-rule="evenodd" d="M69.0554 73.5175C69.0554 73.309 69.0964 73.1025 69.1762 72.9099C69.256 72.7172 69.373 72.5422 69.5204 72.3948C69.8182 72.097 70.2221 71.9297 70.6432 71.9297H72.0421C72.4632 71.9297 72.867 72.097 73.1648 72.3948C73.4626 72.6925 73.6299 73.0964 73.6299 73.5175C73.63 73.5211 73.6314 73.5246 73.6338 73.5273C73.6362 73.53 73.6395 73.5317 73.643 73.5322L74.77 73.6231C75.2748 73.6646 75.6897 74.0375 75.7842 74.5353C76.0245 75.805 76.0423 77.1068 75.8368 78.3826L75.7878 78.6879C75.7428 78.9675 75.6053 79.224 75.3974 79.4163C75.1894 79.6086 74.9229 79.7256 74.6406 79.7486L73.6587 79.828C72.1172 79.9532 70.5681 79.9532 69.0266 79.828L68.0447 79.7486C67.7623 79.7256 67.4957 79.6085 67.2878 79.4161C67.0798 79.2237 66.9424 78.9671 66.8975 78.6874L66.8485 78.3826C66.6428 77.1066 66.661 75.8053 66.901 74.5353C66.9469 74.2933 67.071 74.073 67.2542 73.9083C67.4375 73.7436 67.6697 73.6436 67.9153 73.6237L69.0422 73.5322C69.0459 73.5319 69.0493 73.5303 69.0518 73.5275C69.0542 73.5248 69.0555 73.5212 69.0554 73.5175ZM71.3426 74.3301C70.84 74.3301 70.358 74.5298 70.0026 74.8852C69.6472 75.2406 69.4475 75.7226 69.4475 76.2252C69.4475 76.7279 69.6472 77.2099 70.0026 77.5653C70.358 77.9207 70.84 78.1203 71.3426 78.1203C71.8452 78.1203 72.3273 77.9207 72.6827 77.5653C73.0381 77.2099 73.2377 76.7279 73.2377 76.2252C73.2377 75.7226 73.0381 75.2406 72.6827 74.8852C72.3273 74.5298 71.8452 74.3301 71.3426 74.3301Z" fill="white"/>
</g>
<path id="Vector_3" d="M44.3286 26.6663C46.4651 26.6663 48.514 27.515 50.0247 29.0256C51.5354 30.5363 52.3841 32.5853 52.3841 34.7217C52.3841 36.8581 51.5354 38.907 50.0247 40.4177C48.514 41.9284 46.4651 42.7771 44.3286 42.7771C42.1922 42.7771 40.1433 41.9284 38.6326 40.4177C37.1219 38.907 36.2732 36.8581 36.2732 34.7217C36.2732 32.5853 37.1219 30.5363 38.6326 29.0256C40.1433 27.515 42.1922 26.6663 44.3286 26.6663ZM44.3286 58.888C44.3286 58.888 60.4395 58.888 60.4395 54.8602C60.4395 50.027 52.5854 44.791 44.3286 44.791C36.0718 44.791 28.2178 50.027 28.2178 54.8602C28.2178 58.888 44.3286 58.888 44.3286 58.888Z" fill="#7B7B7B"/>
</g>
</svg>
